<svg width="60" height="60" viewBox="0 0 60 60" fill="none" xmlns="http://www.w3.org/2000/svg">
<circle cx="30.0063" cy="30" r="30" fill="#000A2D"/>
<path d="M30.0393 13.5C39.4113 13.5 46.5063 21.184 46.5063 29.9752C46.5063 40.171 38.1903 46.5 30.0063 46.5C27.3003 46.5 24.2973 45.7729 21.8883 44.3518C21.0468 43.8395 20.3373 43.4594 19.4298 43.7569L16.0968 44.7484C15.2553 45.0128 14.4963 44.3518 14.7438 43.4594L15.8493 39.7579C16.0308 39.2456 15.9978 38.7003 15.7338 38.2707C14.3148 35.6597 13.5063 32.801 13.5063 30.0248C13.5063 21.3327 20.4528 13.5 30.0393 13.5ZM37.5798 27.9261C36.4083 27.9261 35.4678 28.8681 35.4678 30.0413C35.4678 31.198 36.4083 32.1565 37.5798 32.1565C38.7513 32.1565 39.6918 31.198 39.6918 30.0413C39.6918 28.8681 38.7513 27.9261 37.5798 27.9261ZM29.9733 27.9261C28.8183 27.9096 27.8613 28.8681 27.8613 30.0248C27.8613 31.198 28.8018 32.14 29.9733 32.1565C31.1448 32.1565 32.0853 31.198 32.0853 30.0413C32.0853 28.8681 31.1448 27.9261 29.9733 27.9261ZM22.3668 27.9261C21.1953 27.9261 20.2548 28.8681 20.2548 30.0413C20.2548 31.198 21.2118 32.1565 22.3668 32.1565C23.5383 32.14 24.4788 31.198 24.4788 30.0413C24.4788 28.8681 23.5383 27.9261 22.3668 27.9261Z" fill="#3267FF"/>
</svg>
