<svg width="20" height="21" viewBox="0 0 20 21" fill="none" xmlns="http://www.w3.org/2000/svg">
<ellipse cx="10" cy="10.4438" rx="10" ry="9.67278" fill="#52AC1B" fill-opacity="0.5"/>
<mask id="path-2-inside-1_1_2469" fill="white">
<path d="M8.34328 12.696L5.83582 10.2706L5 11.079L8.34328 14.3129L15.5075 7.38318L14.6716 6.57471L8.34328 12.696Z"/>
</mask>
<path d="M8.34328 12.696L5.83582 10.2706L5 11.079L8.34328 14.3129L15.5075 7.38318L14.6716 6.57471L8.34328 12.696Z" fill="white"/>
<path d="M8.34328 12.696L6.25754 14.8523L8.34328 16.8698L10.429 14.8523L8.34328 12.696ZM5.83582 10.2706L7.92157 8.11427L5.83582 6.09677L3.75007 8.11427L5.83582 10.2706ZM5 11.079L2.91425 8.92274L0.685 11.079L2.91425 13.2354L5 11.079ZM8.34328 14.3129L6.25754 16.4692L8.34328 18.4867L10.429 16.4692L8.34328 14.3129ZM15.5075 7.38318L17.5932 9.53948L19.8225 7.38318L17.5932 5.22687L15.5075 7.38318ZM14.6716 6.57471L16.7574 4.4184L14.6716 2.4009L12.5859 4.4184L14.6716 6.57471ZM10.429 10.5397L7.92157 8.11427L3.75007 12.4269L6.25754 14.8523L10.429 10.5397ZM3.75007 8.11427L2.91425 8.92274L7.08575 13.2354L7.92157 12.4269L3.75007 8.11427ZM2.91425 13.2354L6.25754 16.4692L10.429 12.1566L7.08575 8.92274L2.91425 13.2354ZM10.429 16.4692L17.5932 9.53948L13.4217 5.22687L6.25754 12.1566L10.429 16.4692ZM17.5932 5.22687L16.7574 4.4184L12.5859 8.73101L13.4217 9.53948L17.5932 5.22687ZM12.5859 4.4184L6.25754 10.5397L10.429 14.8523L16.7574 8.73101L12.5859 4.4184Z" fill="white" mask="url(#path-2-inside-1_1_2469)"/>
</svg>
