<svg width="20" height="20" viewBox="0 0 20 20" fill="none" xmlns="http://www.w3.org/2000/svg">
<ellipse cx="10" cy="9.8471" rx="10" ry="9.67278" fill="#52AC1B" fill-opacity="0.5"/>
<mask id="path-2-inside-1_1_2615" fill="white">
<path d="M9.34328 12.0993L6.83582 9.6739L6 10.4824L9.34328 13.7163L16.5075 6.7865L15.6716 5.97803L9.34328 12.0993Z"/>
</mask>
<path d="M9.34328 12.0993L6.83582 9.6739L6 10.4824L9.34328 13.7163L16.5075 6.7865L15.6716 5.97803L9.34328 12.0993Z" fill="white"/>
<path d="M9.34328 12.0993L7.25754 14.2556L9.34328 16.2731L11.429 14.2556L9.34328 12.0993ZM6.83582 9.6739L8.92157 7.51759L6.83582 5.50009L4.75007 7.51759L6.83582 9.6739ZM6 10.4824L3.91425 8.32606L1.685 10.4824L3.91425 12.6387L6 10.4824ZM9.34328 13.7163L7.25754 15.8726L9.34328 17.8901L11.429 15.8726L9.34328 13.7163ZM16.5075 6.7865L18.5932 8.94281L20.8225 6.7865L18.5932 4.63019L16.5075 6.7865ZM15.6716 5.97803L17.7574 3.82172L15.6716 1.80422L13.5859 3.82172L15.6716 5.97803ZM11.429 9.943L8.92157 7.51759L4.75007 11.8302L7.25754 14.2556L11.429 9.943ZM4.75007 7.51759L3.91425 8.32606L8.08575 12.6387L8.92157 11.8302L4.75007 7.51759ZM3.91425 12.6387L7.25754 15.8726L11.429 11.5599L8.08575 8.32606L3.91425 12.6387ZM11.429 15.8726L18.5932 8.94281L14.4217 4.63019L7.25754 11.5599L11.429 15.8726ZM18.5932 4.63019L17.7574 3.82172L13.5859 8.13433L14.4217 8.9428L18.5932 4.63019ZM13.5859 3.82172L7.25754 9.943L11.429 14.2556L17.7574 8.13433L13.5859 3.82172Z" fill="white" mask="url(#path-2-inside-1_1_2615)"/>
</svg>
