<svg width="213" height="34" viewBox="0 0 213 34" fill="none" xmlns="http://www.w3.org/2000/svg">
<g opacity="0.4">
<path d="M147.784 3V30.9946H161.786M96.4313 3H114.978M105.705 30.9946V3M191.256 30.9946V3L209.803 30.9946V3M121.52 3V30.9946M140.072 3V30.9946M121.52 16.9429H140.072M65.8027 21.6068V21.7211C65.8027 26.8422 61.6449 30.9946 56.5238 30.9946C54.0643 30.9946 51.7056 30.0175 49.9665 28.2784C48.2274 26.5393 47.2503 24.1806 47.2503 21.7211V12.2735C47.2503 7.15238 51.4027 3 56.5238 3C61.6449 3 65.7973 7.15238 65.7973 12.2735V12.3823M28.7034 16.9973H37.8354M42.7061 30.9946H28.7034V3H42.7061M88.932 21.6286H76.785M70.7333 30.9129L88.932 3V30.9946M3 30.9946V3H9.30204C12.5496 3 15.6641 4.29008 17.9605 6.58645C20.2569 8.88281 21.5469 11.9973 21.5469 15.2449V18.7497C21.5469 21.9972 20.2569 25.1117 17.9605 27.4081C15.6641 29.7045 12.5496 30.9946 9.30204 30.9946H3Z" stroke="#000A2D" stroke-width="6" stroke-linecap="round" stroke-linejoin="round"/>
<path d="M174.93 3H174.925C169.803 3 165.651 7.15188 165.651 12.2735V21.7265C165.651 26.8481 169.803 31 174.925 31H174.93C180.052 31 184.204 26.8481 184.204 21.7265V12.2735C184.204 7.15188 180.052 3 174.93 3Z" stroke="#000A2D" stroke-width="6" stroke-linecap="round" stroke-linejoin="round"/>
</g>
</svg>
