<svg width="29" height="20" viewBox="0 0 29 20" fill="none" xmlns="http://www.w3.org/2000/svg">
<path d="M0.00634766 6.62695H28.2783V12.8114H0.00634766V6.62695Z" fill="#E6E7E8"/>
<path d="M23.8608 0H4.42384C1.49637 0 0.00634766 2.17561 0.00634766 4.85924V6.62623H28.2783V4.85924C28.2783 2.17561 26.7883 0 23.8608 0Z" fill="#FF9933"/>
<path d="M0.00634766 14.5775C0.00634766 17.2612 1.49637 19.4368 4.42384 19.4368H23.8608C26.7883 19.4368 28.2783 17.2612 28.2783 14.5775V12.8105H0.00634766V14.5775Z" fill="#128807"/>
<path fill-rule="evenodd" clip-rule="evenodd" d="M14.2796 6.88379C14.844 6.88379 15.3957 7.05122 15.865 7.36488C16.3342 7.67855 16.6999 8.12436 16.9157 8.6459C17.1314 9.16744 17.1877 9.74128 17.0772 10.2948C16.9668 10.8483 16.6947 11.3566 16.2953 11.7554C15.8958 12.1542 15.3871 12.4256 14.8334 12.5351C14.2797 12.6447 13.706 12.5876 13.1848 12.371C12.6636 12.1544 12.2183 11.7881 11.9054 11.3183C11.5925 10.8486 11.4259 10.2966 11.4268 9.73219C11.428 8.97637 11.7292 8.25195 12.264 7.71793C12.7989 7.1839 13.5238 6.8839 14.2796 6.88379ZM12.3778 8.11848C12.4269 8.17414 12.4357 8.23377 12.403 8.28369C12.3892 8.30668 12.3678 8.32416 12.3425 8.33317C12.3231 8.34038 12.3022 8.34279 12.2817 8.34017C12.2611 8.33755 12.2415 8.33 12.2246 8.31815C12.1478 8.4281 12.0802 8.54424 12.0227 8.66536C12.0894 8.7091 12.1115 8.76387 12.0894 8.82439C12.0776 8.85519 12.0542 8.88018 12.0243 8.89404C11.9943 8.90789 11.9602 8.90953 11.929 8.89861C11.8972 8.96222 11.827 9.2308 11.8261 9.28734C11.8554 9.29294 11.8817 9.30875 11.9003 9.33196C11.92 9.355 11.9301 9.38473 11.9286 9.41501C11.9202 9.49806 11.869 9.5334 11.7908 9.53649C11.7784 9.61645 11.7797 9.88415 11.7921 9.93672C11.8751 9.94555 11.9189 9.98177 11.9259 10.0449C11.9357 10.113 11.903 10.1571 11.8235 10.1881C11.8473 10.3193 11.8813 10.4483 11.9259 10.5746C11.9571 10.5652 11.9904 10.5663 12.0209 10.5777C12.0505 10.5905 12.0739 10.6126 12.0863 10.6431C12.0973 10.6669 12.0995 10.6917 12.0938 10.7177C12.0897 10.7371 12.0811 10.7552 12.0688 10.7707C12.0564 10.7862 12.0406 10.7986 12.0227 10.807C12.0819 10.9298 12.1473 11.0455 12.2246 11.1542C12.2935 11.1202 12.3536 11.1281 12.3942 11.1767C12.4121 11.1967 12.4223 11.2224 12.4229 11.2492C12.4243 11.269 12.4208 11.2888 12.4128 11.307C12.4048 11.3251 12.3925 11.3411 12.377 11.3534C12.4653 11.4568 12.5594 11.5513 12.6619 11.6383C12.7198 11.5875 12.7798 11.5796 12.8315 11.6158C12.8549 11.6321 12.8713 11.6538 12.8788 11.6803C12.8842 11.6991 12.8853 11.7188 12.8821 11.7381C12.8789 11.7573 12.8714 11.7756 12.8602 11.7916C12.972 11.8685 13.0873 11.9347 13.2079 11.9922C13.2547 11.9264 13.3082 11.9043 13.366 11.9264C13.3912 11.9354 13.4131 11.9519 13.4288 11.9736C13.4509 12.009 13.4539 12.0478 13.4411 12.0894C13.5684 12.1344 13.6965 12.1689 13.829 12.1923C13.8551 12.1176 13.9001 12.0827 13.9602 12.0871C13.988 12.0894 14.0132 12.0978 14.0353 12.1167C14.0662 12.145 14.0808 12.1808 14.0781 12.225C14.2142 12.2347 14.3472 12.2356 14.4792 12.225C14.489 12.1397 14.523 12.0969 14.5915 12.0871C14.6175 12.0836 14.6439 12.0889 14.6665 12.1022C14.6831 12.1115 14.6973 12.1245 14.7082 12.1401C14.719 12.1557 14.7262 12.1735 14.7293 12.1923C14.8627 12.1675 14.9921 12.1335 15.1171 12.0889C15.1061 12.0054 15.1264 11.9555 15.1825 11.9294C15.203 11.9207 15.2253 11.9172 15.2474 11.9193C15.2704 11.9211 15.2912 11.9281 15.308 11.9431C15.3243 11.9568 15.338 11.9736 15.3539 11.9908C15.4743 11.934 15.5899 11.8674 15.6994 11.7916C15.6543 11.7209 15.6808 11.6534 15.7175 11.6233C15.7303 11.6124 15.7451 11.604 15.7611 11.5989C15.7772 11.5937 15.794 11.5918 15.8108 11.5932C15.8276 11.5947 15.8439 11.5994 15.8588 11.6073C15.8738 11.6151 15.887 11.6258 15.8977 11.6388C15.9997 11.5513 16.0956 11.4563 16.1813 11.3543C16.1314 11.2973 16.1217 11.2372 16.1583 11.1855C16.1732 11.1624 16.1959 11.1454 16.2224 11.1378C16.2412 11.1319 16.2612 11.1303 16.2807 11.1333C16.3003 11.1363 16.3188 11.1437 16.335 11.1551C16.4123 11.0437 16.4795 10.9284 16.5369 10.8074C16.4724 10.7641 16.449 10.7133 16.4684 10.6554C16.4755 10.6297 16.4911 10.6071 16.5126 10.5914C16.5298 10.5794 16.5495 10.5716 16.5702 10.5685C16.5909 10.5655 16.612 10.5672 16.6319 10.5737C16.6606 10.5114 16.7322 10.249 16.7361 10.1854C16.7056 10.1799 16.678 10.1636 16.6584 10.1395C16.6481 10.1276 16.6404 10.1136 16.6358 10.0986C16.6311 10.0835 16.6296 10.0677 16.6314 10.052C16.6331 10.024 16.6447 9.99757 16.6641 9.97736C16.6774 9.96335 16.6937 9.9525 16.7117 9.94562C16.7298 9.93874 16.7491 9.936 16.7684 9.9376C16.7794 9.80398 16.7794 9.66967 16.7684 9.53605C16.684 9.52766 16.6438 9.49497 16.6328 9.42826C16.6278 9.40304 16.6315 9.37687 16.6434 9.35405C16.6525 9.3364 16.6655 9.3211 16.6816 9.30937C16.6976 9.29765 16.7161 9.2898 16.7357 9.28646C16.7125 9.15448 16.6781 9.02472 16.6328 8.89861C16.551 8.9123 16.5007 8.89021 16.4737 8.83367C16.4668 8.81855 16.4628 8.80219 16.4622 8.78555C16.4616 8.7689 16.4644 8.7523 16.4702 8.73671C16.4761 8.72113 16.485 8.70687 16.4965 8.69477C16.5079 8.68267 16.5217 8.67298 16.5369 8.66625C16.4797 8.5448 16.4121 8.42849 16.335 8.31859C16.2639 8.3526 16.206 8.34465 16.1654 8.29606C16.1474 8.27553 16.1373 8.24918 16.1371 8.22185C16.1363 8.20243 16.14 8.18309 16.148 8.16538C16.156 8.14766 16.168 8.13205 16.1831 8.1198C16.0958 8.01769 16.0009 7.92243 15.899 7.83487C15.8381 7.887 15.7789 7.89363 15.7285 7.8574C15.7056 7.84215 15.6889 7.81931 15.6812 7.79291C15.6757 7.77437 15.6746 7.75483 15.6778 7.73576C15.681 7.7167 15.6885 7.69862 15.6998 7.68291C15.5897 7.60615 15.4734 7.53862 15.3521 7.48103C15.3066 7.54641 15.2554 7.56806 15.1975 7.54862C15.1719 7.54042 15.1495 7.52434 15.1335 7.50268C15.1218 7.48544 15.1144 7.4657 15.1118 7.44506C15.1092 7.42441 15.1115 7.40344 15.1185 7.38385C14.9924 7.33827 14.8626 7.30383 14.7306 7.28092C14.7054 7.35248 14.6599 7.38959 14.6012 7.38606C14.5737 7.38517 14.5473 7.37523 14.5261 7.35779C14.5103 7.3445 14.498 7.32759 14.4903 7.30851C14.4825 7.28943 14.4795 7.26874 14.4815 7.24823C14.348 7.23689 14.2138 7.23704 14.0803 7.24867C14.0711 7.32819 14.0366 7.37369 13.9779 7.38341C13.9514 7.38905 13.9239 7.38562 13.8997 7.37369C13.8816 7.36475 13.8659 7.35163 13.8539 7.33542C13.842 7.31921 13.834 7.30038 13.8308 7.28048C13.6987 7.3045 13.5689 7.33921 13.4425 7.38429C13.4566 7.46248 13.4345 7.51372 13.3806 7.54155C13.3572 7.55348 13.3325 7.55834 13.3051 7.55348C13.2845 7.55067 13.265 7.54256 13.2485 7.52993C13.232 7.51731 13.2191 7.50061 13.211 7.48148C13.1354 7.50975 12.8951 7.6489 12.8633 7.6838C12.896 7.74917 12.8885 7.80704 12.8435 7.84857C12.8307 7.85981 12.8159 7.86839 12.7997 7.87378C12.7836 7.87917 12.7666 7.88126 12.7497 7.87995C12.7327 7.87863 12.7162 7.87392 12.7012 7.8661C12.6861 7.85828 12.6727 7.84751 12.6619 7.83443C12.56 7.92157 12.465 8.01654 12.3778 8.11848Z" fill="#010088"/>
<path fill-rule="evenodd" clip-rule="evenodd" d="M15.5033 11.8513C15.498 11.8455 15.4927 11.8415 15.4887 11.8354C15.2319 11.4428 14.9744 11.0506 14.7161 10.659C14.7104 10.6479 14.7038 10.6369 14.6985 10.6245C14.6384 10.4845 14.5796 10.3445 14.5182 10.2049C14.5162 10.1977 14.5133 10.1907 14.5098 10.1841C14.4851 10.1934 14.4626 10.204 14.4361 10.2141L14.4449 10.2367C14.5001 10.3723 14.5531 10.5083 14.6092 10.644C14.6242 10.6802 14.6304 10.7182 14.6384 10.7562C14.6817 10.9589 14.7223 11.1626 14.766 11.3658L14.9154 12.0916C14.9161 12.0933 14.9164 12.0952 14.9161 12.097C14.9159 12.0989 14.9152 12.1007 14.914 12.1022L14.9078 12.0867C14.7868 11.7161 14.6627 11.3459 14.5412 10.9753C14.5169 10.9028 14.4953 10.8313 14.4687 10.7588C14.4564 10.7226 14.4524 10.6855 14.4467 10.6479C14.4312 10.5428 14.4179 10.4368 14.4007 10.3316C14.3985 10.3065 14.3945 10.2817 14.391 10.2574C14.3899 10.2473 14.3883 10.2373 14.3861 10.2274C14.3596 10.23 14.3353 10.2336 14.3088 10.2367C14.3088 10.2473 14.3097 10.2583 14.3106 10.2694C14.3261 10.3988 14.3393 10.5287 14.3579 10.6577C14.3676 10.7283 14.3627 10.7977 14.3588 10.8684C14.3561 10.928 14.3521 10.9876 14.3495 11.0477C14.3415 11.1688 14.3353 11.2894 14.3269 11.41L14.3137 11.6591C14.3062 11.8005 14.2974 11.9414 14.2898 12.0819C14.2863 12.1216 14.2854 12.1622 14.2814 12.2011L14.2708 12.0673L14.2572 11.7775L14.2412 11.5191C14.2368 11.4307 14.2311 11.3428 14.2262 11.2545C14.2223 11.1966 14.22 11.1387 14.2165 11.0817C14.2117 10.9903 14.2059 10.8988 14.2015 10.8083C14.1971 10.76 14.1983 10.7114 14.205 10.6634C14.2143 10.598 14.2214 10.5313 14.2293 10.465C14.2382 10.3997 14.2457 10.3338 14.2536 10.2694C14.2545 10.2592 14.2545 10.2486 14.2558 10.2367L14.1785 10.2265C14.1763 10.2442 14.1723 10.2614 14.1692 10.2791C14.1509 10.414 14.132 10.5489 14.1127 10.6837C14.1074 10.7363 14.0866 10.7849 14.069 10.8339C13.9329 11.2483 13.7964 11.6631 13.6586 12.077C13.6555 12.0845 13.6542 12.0916 13.6484 12.0986C13.6484 12.0933 13.6484 12.0894 13.6506 12.0845C13.7076 11.8053 13.765 11.5257 13.8242 11.2465C13.8622 11.061 13.9015 10.8759 13.9391 10.6908L13.9497 10.6603C14.0067 10.5203 14.0615 10.3789 14.1198 10.2389C14.1218 10.2306 14.1248 10.2226 14.1286 10.215C14.1043 10.2046 14.0798 10.1944 14.0553 10.1845C14.0522 10.1925 14.0473 10.1991 14.0447 10.2071C13.9837 10.3475 13.9241 10.4885 13.8631 10.6289C13.8593 10.6395 13.8546 10.6497 13.849 10.6594C13.5883 11.0543 13.3284 11.4496 13.0693 11.8455C13.0657 11.8515 13.0611 11.8567 13.0556 11.861C13.0578 11.8539 13.0618 11.8482 13.0644 11.842L13.7032 10.5755C13.7087 10.564 13.7155 10.5532 13.7235 10.5432L13.9965 10.177C14.0023 10.1708 14.0058 10.1651 14.0111 10.1585C13.9886 10.1421 13.9705 10.1271 13.9479 10.1099C13.9431 10.1156 13.9386 10.1205 13.9347 10.1262C13.8393 10.2459 13.7452 10.3665 13.652 10.4858C13.6414 10.4969 13.6316 10.5083 13.6197 10.5185C13.2716 10.8299 12.9235 11.1396 12.5741 11.4515C12.567 11.4572 12.56 11.4634 12.5511 11.4674C12.5551 11.4634 12.5573 11.4585 12.56 11.4555C12.8466 11.1352 13.1311 10.8154 13.4165 10.4951C13.4328 10.4774 13.4492 10.4597 13.4647 10.4408C13.4973 10.4028 13.534 10.3692 13.5738 10.3392L13.8909 10.0896C13.898 10.0843 13.9033 10.0785 13.9113 10.0732C13.8956 10.0521 13.8794 10.0313 13.8627 10.0109C13.8556 10.0153 13.8499 10.0198 13.8432 10.0246C13.7218 10.1156 13.5998 10.2057 13.4783 10.2972C13.4648 10.3074 13.4503 10.3165 13.4351 10.3241C13.0203 10.5335 12.6032 10.7429 12.1876 10.9523C12.1796 10.9558 12.1721 10.9603 12.1628 10.9603L12.1796 10.9483L12.9553 10.4403C13.0905 10.3515 13.2261 10.2627 13.3604 10.1735C13.3719 10.1669 13.3838 10.1611 13.394 10.1558C13.5349 10.0962 13.6754 10.0361 13.815 9.97603C13.8216 9.97338 13.8282 9.97073 13.8362 9.96676L13.8066 9.89387C13.7982 9.89608 13.7929 9.89829 13.7862 9.90049C13.6431 9.95748 13.5013 10.0153 13.3573 10.0719C13.3277 10.0829 13.2955 10.0882 13.2641 10.0949L12.2989 10.2954C12.1774 10.3215 12.0537 10.3471 11.9318 10.3723C11.9269 10.3734 11.9217 10.3728 11.9172 10.3705C11.9508 10.3599 11.9844 10.348 12.0175 10.3369C12.4345 10.1996 12.8511 10.0626 13.2667 9.92435C13.2994 9.91331 13.3343 9.91021 13.3675 9.90491C13.5018 9.88636 13.6356 9.86692 13.7686 9.84793C13.7767 9.84649 13.7848 9.84472 13.7929 9.84263C13.7902 9.817 13.7862 9.79138 13.784 9.76488L13.7195 9.77195L13.4527 9.80419C13.4028 9.81082 13.3533 9.81612 13.3043 9.8223C13.2924 9.82363 13.2809 9.82407 13.2694 9.82363L12.9884 9.80729L12.8224 9.79801L12.5361 9.78122L12.1186 9.75825C12.0179 9.75295 11.9199 9.74632 11.8196 9.73926C11.8355 9.73793 11.8532 9.73528 11.8704 9.73528L12.2127 9.71584L12.6651 9.69022L13.0397 9.66902L13.2747 9.65488C13.284 9.65444 13.295 9.65577 13.3043 9.65665L13.5738 9.6889L13.7646 9.71187H13.784C13.7862 9.68669 13.7902 9.66283 13.7929 9.63545C13.7765 9.63191 13.758 9.62926 13.7416 9.62617C13.6237 9.60982 13.5066 9.5926 13.3887 9.57537C13.3642 9.57256 13.3397 9.56932 13.3153 9.56565C13.3018 9.56382 13.2885 9.56072 13.2756 9.55637C12.9244 9.44108 12.5754 9.3249 12.2247 9.2096C12.1271 9.1776 12.0296 9.14521 11.9322 9.11242C11.9238 9.11019 11.9159 9.10644 11.9088 9.10137L11.9702 9.11374L12.7199 9.26968C12.9204 9.31164 13.1241 9.35317 13.3246 9.39558C13.3367 9.39824 13.3485 9.40194 13.36 9.40662C13.5013 9.46228 13.6414 9.51971 13.784 9.57625L13.8052 9.58464C13.815 9.56035 13.8256 9.53694 13.8362 9.51176C13.829 9.50746 13.8214 9.50377 13.8136 9.50071C13.6732 9.44152 13.5331 9.381 13.3931 9.32048C13.3821 9.31583 13.3715 9.31036 13.3613 9.30413C12.965 9.04483 12.5706 8.7842 12.1739 8.52445C12.1686 8.52155 12.1645 8.51706 12.1619 8.51164L12.1778 8.52047C12.5728 8.71926 12.9681 8.91805 13.3639 9.11639C13.4293 9.14908 13.4929 9.1884 13.5512 9.23301C13.6475 9.30767 13.7456 9.37923 13.8437 9.45256C13.8503 9.45742 13.856 9.46184 13.8631 9.46626L13.9117 9.40485L13.8945 9.38983L13.5353 9.10756C13.523 9.09784 13.5132 9.08768 13.5026 9.07708C13.1899 8.72677 12.8767 8.37602 12.5648 8.02571C12.5603 8.0221 12.5568 8.01738 12.5547 8.01202C12.5639 8.0129 12.5675 8.01909 12.5714 8.02306C12.7609 8.19093 12.9487 8.35879 13.1369 8.52666L13.6237 8.96045C13.6325 8.96841 13.6409 8.97812 13.6489 8.98696L13.9276 9.34124C13.9347 9.34919 13.94 9.35759 13.9479 9.36819L14.012 9.31915C14.008 9.31297 14.0027 9.30811 13.9996 9.30237C13.9086 9.18089 13.8181 9.05896 13.7262 8.93792C13.7167 8.92367 13.708 8.90892 13.7001 8.89375C13.4881 8.4763 13.2778 8.05708 13.0671 7.63918C13.0631 7.63123 13.0591 7.62505 13.0582 7.61665C13.0622 7.62107 13.0662 7.62505 13.0688 7.62902L13.5203 8.31903L13.8397 8.80496C13.8507 8.82351 13.8631 8.84295 13.8702 8.86327C13.9298 8.99933 13.9872 9.13583 14.0451 9.27189C14.0491 9.27807 14.0517 9.2847 14.0557 9.29265L14.129 9.26217L14.1211 9.24361C14.0659 9.10579 14.012 8.96796 13.9559 8.83102C13.9404 8.79612 13.9347 8.7599 13.9272 8.72368C13.879 8.49352 13.8326 8.26293 13.7845 8.03234C13.7372 7.81058 13.6922 7.59059 13.6458 7.36795C13.6449 7.36662 13.6458 7.36486 13.6475 7.36044L13.6864 7.47839C13.8251 7.89495 13.9625 8.31241 14.0986 8.72986C14.11 8.76255 14.114 8.79833 14.1189 8.83235C14.1352 8.94808 14.1516 9.06471 14.1701 9.18133C14.1732 9.20342 14.1745 9.2255 14.179 9.2498L14.2558 9.24008V9.21093C14.2448 9.1186 14.2329 9.02583 14.2223 8.93395C14.2156 8.88005 14.2108 8.82749 14.2033 8.77492C14.1988 8.73957 14.1988 8.70381 14.2033 8.66846C14.2064 8.60838 14.2108 8.54874 14.2134 8.48911L14.2351 8.12908C14.239 8.06459 14.2404 7.99921 14.2443 7.93471C14.2501 7.85078 14.2545 7.76552 14.2594 7.68115C14.2633 7.6193 14.2664 7.55702 14.2691 7.49561C14.2726 7.42272 14.2784 7.35028 14.2845 7.27783C14.2863 7.29771 14.2872 7.31803 14.2881 7.33924C14.2943 7.42803 14.2987 7.51682 14.304 7.60605L14.3269 8.01069L14.3406 8.23775C14.3477 8.36895 14.3539 8.50059 14.3614 8.63179C14.3636 8.65167 14.3645 8.67022 14.3658 8.68966C14.3716 8.7409 14.3614 8.79171 14.357 8.84251L14.3287 9.07398C14.3243 9.11772 14.3177 9.16145 14.3124 9.20562C14.3115 9.21623 14.3115 9.22771 14.3084 9.24052C14.3358 9.2445 14.3605 9.24715 14.3879 9.25068C14.3919 9.23169 14.3937 9.21402 14.3967 9.19546C14.4179 9.0519 14.4383 8.90833 14.4586 8.76387C14.4604 8.75327 14.4648 8.74223 14.4674 8.73119C14.6114 8.29916 14.7528 7.86668 14.8959 7.43377C14.903 7.41389 14.9083 7.39489 14.9193 7.3759C14.9181 7.38598 14.9165 7.396 14.9145 7.40594C14.85 7.7187 14.7828 8.03057 14.7188 8.34245C14.6901 8.48867 14.6596 8.63533 14.6291 8.78155C14.627 8.79366 14.6231 8.80542 14.6176 8.81644L14.4471 9.24273C14.444 9.24892 14.4418 9.25554 14.4387 9.26349C14.4652 9.27365 14.4869 9.28381 14.5125 9.29397L14.5226 9.27277L14.7007 8.85443C14.7077 8.8403 14.713 8.8266 14.7223 8.81512L15.4932 7.63918C15.498 7.633 15.502 7.62681 15.5095 7.6224C15.5064 7.62858 15.5042 7.63476 15.5002 7.64095L14.8663 8.89993C14.8597 8.91186 14.8531 8.92379 14.8451 8.93439C14.7532 9.05675 14.6609 9.17912 14.5704 9.3006C14.566 9.30756 14.5611 9.31421 14.5558 9.32048L14.6185 9.36951C14.6235 9.36425 14.628 9.35864 14.6322 9.35273C14.7258 9.23345 14.8191 9.11374 14.914 8.99447C14.9245 8.98105 14.9362 8.96863 14.9489 8.95736C15.2979 8.64549 15.6473 8.33405 15.9968 8.02306C16.0025 8.0182 16.0065 8.01334 16.0158 8.01069L16.0043 8.02483C15.8616 8.18607 15.7189 8.34642 15.574 8.50678C15.4017 8.69894 15.2316 8.89066 15.0607 9.08282C15.0519 9.09254 15.0413 9.10093 15.032 9.10888L14.6728 9.39116L14.6552 9.40529C14.672 9.4265 14.687 9.44682 14.7046 9.46802L14.7236 9.45389L15.0916 9.17824C15.101 9.17154 15.1107 9.16535 15.1208 9.15968C15.5448 8.94676 15.9663 8.73472 16.3877 8.5218C16.3948 8.5187 16.4005 8.51605 16.408 8.51605C16.3886 8.52886 16.3705 8.54123 16.351 8.55316C15.9698 8.80363 15.5886 9.0541 15.206 9.30458C15.1954 9.31076 15.1857 9.31694 15.1742 9.3218C15.0333 9.38277 14.8911 9.44284 14.7515 9.50336L14.7289 9.5122C14.7409 9.53694 14.7493 9.56035 14.7599 9.58509L14.7802 9.57846C14.922 9.52236 15.0629 9.46361 15.206 9.40927C15.2414 9.39513 15.2802 9.38895 15.3187 9.381L15.9694 9.24582C16.1717 9.2043 16.3722 9.16189 16.575 9.11992C16.5936 9.11595 16.6108 9.11197 16.6302 9.10844C16.6351 9.10844 16.6395 9.10756 16.6466 9.11021L16.5847 9.13053C16.1531 9.27321 15.7229 9.41545 15.2913 9.55637C15.2586 9.56786 15.2224 9.57095 15.1884 9.57625C15.0916 9.59083 14.9962 9.60364 14.9021 9.61733C14.8676 9.62219 14.8336 9.62749 14.7992 9.63191L14.774 9.63633C14.7766 9.66239 14.7806 9.68669 14.7824 9.71496L14.8491 9.70789L15.0876 9.67962C15.1473 9.67211 15.2096 9.66372 15.2718 9.65797C15.2997 9.65577 15.328 9.65842 15.3567 9.65974C15.4172 9.66239 15.4777 9.66769 15.5409 9.67034L15.8978 9.69155C15.9508 9.69464 16.0038 9.69685 16.0586 9.70038L16.4226 9.72114C16.5087 9.72645 16.5975 9.73042 16.6832 9.73572C16.7045 9.73694 16.7257 9.73885 16.7468 9.74147L16.6824 9.74677L16.4151 9.76134L16.0842 9.78078L15.8346 9.79403C15.7198 9.8011 15.6027 9.80773 15.487 9.81524C15.4234 9.81789 15.358 9.82407 15.2939 9.82451C15.2573 9.8254 15.2188 9.81833 15.1831 9.81435C15.1045 9.80515 15.0261 9.79572 14.9476 9.78608L14.797 9.76797H14.7824C14.7806 9.79359 14.7766 9.81877 14.774 9.84572C14.9297 9.86877 15.0855 9.8913 15.2414 9.91331C15.2873 9.91905 15.3275 9.93716 15.3708 9.95085L16.6271 10.3657C16.6353 10.3674 16.643 10.3708 16.6497 10.3758C16.6391 10.374 16.6289 10.3723 16.6183 10.3714L15.5272 10.1439L15.2392 10.0838C15.2299 10.0812 15.2175 10.0776 15.2074 10.0728C15.0656 10.0167 14.9233 9.95925 14.7806 9.90226L14.7616 9.89564C14.7513 9.91983 14.7406 9.94383 14.7294 9.96764L14.7528 9.97868C14.8937 10.0388 15.0337 10.0984 15.1738 10.1589C15.1848 10.1638 15.1959 10.1695 15.2074 10.1775L16.3833 10.9479C16.389 10.9523 16.3965 10.9576 16.4014 10.966C16.3957 10.9625 16.389 10.9602 16.3842 10.9567L15.7715 10.6493C15.5577 10.5406 15.3421 10.4328 15.1261 10.3241C15.1123 10.3173 15.0994 10.3089 15.0876 10.299C14.9662 10.2084 14.8434 10.1174 14.7219 10.026C14.7165 10.0214 14.7107 10.0172 14.7046 10.0136C14.6879 10.0339 14.6728 10.0538 14.6552 10.075L14.672 10.0882C14.7903 10.1828 14.9109 10.2773 15.0298 10.3714C15.0433 10.3811 15.0556 10.3924 15.0664 10.405L16.0025 11.4524C16.0063 11.4576 16.0093 11.4634 16.0113 11.4696C16.0065 11.4643 15.9999 11.4608 15.995 11.4568C15.6438 11.1427 15.2922 10.8304 14.9401 10.5167C14.9321 10.5097 14.925 10.5016 14.9189 10.4929L14.6326 10.128C14.6287 10.1223 14.6238 10.117 14.6189 10.1112C14.5986 10.128 14.5787 10.143 14.5584 10.1607C14.5602 10.166 14.5642 10.1717 14.5677 10.177L14.8456 10.5472C14.8535 10.558 14.8606 10.5694 14.8668 10.5812C15.0775 10.9991 15.2878 11.4179 15.498 11.8362C15.5015 11.8419 15.5037 11.8482 15.5046 11.8548H15.5033V11.8513Z" fill="#010088"/>
<path fill-rule="evenodd" clip-rule="evenodd" d="M15.4985 11.8508C15.5033 11.8552 15.5061 11.8599 15.5099 11.8639C15.5075 11.8647 15.5075 11.866 15.5047 11.8665C15.5037 11.8604 15.5004 11.8565 15.4995 11.8508H15.4985Z" fill="#010088"/>
</svg>
