<svg width="37" height="37" viewBox="0 0 37 37" fill="none" xmlns="http://www.w3.org/2000/svg">
<path d="M15.5464 16.7424C15.6234 16.2337 15.793 15.7866 16.0089 15.4012C16.2247 15.0158 16.533 14.692 16.9184 14.4453C17.2884 14.2141 17.7509 14.1062 18.3214 14.0908C18.6759 14.1062 18.9997 14.1678 19.2926 14.2912C19.6009 14.4299 19.8784 14.6149 20.0943 14.8462C20.3101 15.0774 20.4797 15.3549 20.6184 15.6633C20.7572 15.9716 20.8189 16.3108 20.8343 16.6499H23.5939C23.563 15.9253 23.4243 15.2624 23.1622 14.6612C22.9001 14.0599 22.5455 13.5358 22.083 13.1041C21.6205 12.6724 21.0655 12.3333 20.418 12.0866C19.7705 11.8399 19.0614 11.732 18.2751 11.732C17.273 11.732 16.3943 11.9016 15.6543 12.2562C14.9143 12.6108 14.2976 13.0733 13.8043 13.6745C13.3109 14.2758 12.9409 14.9695 12.7097 15.7712C12.4784 16.5728 12.3397 17.4053 12.3397 18.2995V18.7158C12.3397 19.6099 12.463 20.4424 12.6943 21.2441C12.9255 22.0458 13.2955 22.7395 13.7889 23.3253C14.2822 23.9112 14.8989 24.3891 15.6389 24.7283C16.3789 25.0674 17.2576 25.2524 18.2597 25.2524C18.9843 25.2524 19.6626 25.1291 20.2947 24.8978C20.9268 24.6666 21.4818 24.3428 21.9597 23.9266C22.4376 23.5103 22.823 23.0324 23.1005 22.4774C23.378 21.9224 23.5476 21.3366 23.563 20.7045H20.8034C20.788 21.0283 20.7109 21.3212 20.5722 21.5987C20.4334 21.8762 20.2484 22.1074 20.0172 22.3078C19.7859 22.5083 19.5239 22.6624 19.2155 22.7703C18.9226 22.8783 18.6143 22.9091 18.2905 22.9245C17.7355 22.9091 17.273 22.8012 16.9184 22.5699C16.533 22.3233 16.2247 21.9995 16.0089 21.6141C15.793 21.2287 15.6234 20.7662 15.5464 20.2574C15.4693 19.7487 15.423 19.2245 15.423 18.7158V18.2995C15.423 17.7599 15.4693 17.2512 15.5464 16.7424ZM18.5064 3.08325C9.99636 3.08325 3.08969 9.98992 3.08969 18.4999C3.08969 27.0099 9.99636 33.9166 18.5064 33.9166C27.0164 33.9166 33.923 27.0099 33.923 18.4999C33.923 9.98992 27.0164 3.08325 18.5064 3.08325ZM18.5064 30.8333C11.7076 30.8333 6.17302 25.2987 6.17302 18.4999C6.17302 11.7012 11.7076 6.16659 18.5064 6.16659C25.3051 6.16659 30.8397 11.7012 30.8397 18.4999C30.8397 25.2987 25.3051 30.8333 18.5064 30.8333Z" fill="#3267FF"/>
</svg>
