<svg width="551" height="589" viewBox="0 0 551 589" fill="none" xmlns="http://www.w3.org/2000/svg">
<path d="M275.5 589C427.654 589 551 579.809 551 568.471C551 557.134 427.654 547.943 275.5 547.943C123.346 547.943 0 557.134 0 568.471C0 579.809 123.346 589 275.5 589Z" fill="#E8EEFF"/>
<path opacity="0.3" d="M419.187 255.779H354.804V562.196H419.187V255.779Z" fill="black"/>
<path opacity="0.2" d="M63.6123 445.594C87.5964 489.116 158.48 495.844 188.588 469.858C231.32 432.972 228.958 335.482 273.345 300.936C354.957 237.465 454.685 411.773 517.775 238.59V562.198H63.6123V445.594Z" fill="#407BFF"/>
<path d="M140.378 485.869C132.687 485.866 125.012 485.022 117.447 483.348C92.6504 477.908 73.3308 464.615 63.0842 446.027C63.0172 445.858 63.0034 445.665 63.0451 445.484C63.0869 445.303 63.1814 445.146 63.3114 445.042C63.4413 444.939 63.5979 444.895 63.7525 444.919C63.907 444.944 64.049 445.035 64.1525 445.175C74.0681 463.146 93.5683 476.511 117.673 481.825C144.756 487.809 172.412 482.858 188.21 469.221C209.035 451.25 219.281 418.119 229.182 386.075C239.519 352.617 250.247 318.017 272.997 300.281C306.641 274.095 343.445 288.077 379.06 301.587C431.03 321.335 480.142 339.977 517.186 238.28C517.268 238.121 517.395 238.003 517.543 237.947C517.692 237.892 517.852 237.902 517.994 237.977C518.136 238.052 518.252 238.186 518.319 238.355C518.386 238.523 518.4 238.716 518.36 238.896C501.282 285.756 480.744 310.545 453.795 316.874C430.022 322.496 405.075 313.03 378.668 303.001C343.354 289.6 306.822 275.8 273.689 301.533C251.27 318.978 240.587 353.324 230.371 386.565C220.41 418.826 210.088 452.175 188.963 470.436C177.407 480.446 159.637 485.869 140.378 485.869Z" fill="#407BFF"/>
<path d="M101.242 404.427H36.8584V562.196H101.242V404.427Z" fill="#407BFF"/>
<path opacity="0.3" d="M101.242 404.427H36.8584V562.196H101.242V404.427Z" fill="black"/>
<path d="M207.23 455.004H142.847V562.197H207.23V455.004Z" fill="#407BFF"/>
<path opacity="0.3" d="M207.23 455.004H142.847V562.197H207.23V455.004Z" fill="black"/>
<path d="M313.219 364.442H248.835V562.197H313.219V364.442Z" fill="#407BFF"/>
<path opacity="0.3" d="M313.219 364.442H248.835V562.197H313.219V364.442Z" fill="black"/>
<path d="M419.187 255.779H354.804V562.196H419.187V255.779Z" fill="#407BFF"/>
<path d="M525.176 105.228H460.792V562.197H525.176V105.228Z" fill="#407BFF"/>
<path opacity="0.3" d="M525.176 105.228H460.792V562.197H525.176V105.228Z" fill="black"/>
<path d="M118.335 404.427H53.9517V562.196H118.335V404.427Z" fill="#407BFF"/>
<path opacity="0.1" d="M118.335 404.427H53.9517V562.196H118.335V404.427Z" fill="black"/>
<path d="M224.324 455.004H159.94V562.197H224.324V455.004Z" fill="#407BFF"/>
<path opacity="0.1" d="M224.324 455.004H159.94V562.197H224.324V455.004Z" fill="black"/>
<path d="M330.293 364.442H265.91V562.197H330.293V364.442Z" fill="#407BFF"/>
<path opacity="0.1" d="M330.293 364.442H265.91V562.197H330.293V364.442Z" fill="black"/>
<path d="M436.282 255.779H371.898V562.196H436.282V255.779Z" fill="#407BFF"/>
<path d="M542.269 105.228H477.886V562.197H542.269V105.228Z" fill="#407BFF"/>
<path opacity="0.1" d="M542.269 105.228H477.886V562.197H542.269V105.228Z" fill="black"/>
<path opacity="0.1" d="M436.282 255.779H371.898V562.196H436.282V255.779Z" fill="black"/>
<path opacity="0.3" d="M372 256H355V562H372V256Z" fill="black"/>
<path d="M63 397.5V379L121.031 299.827L163.845 416.5L221.92 299.827L267.988 335L336.064 137.5L391.5 225L483.99 21L488.085 39L393.392 245L338.624 163L272.083 351.5L226.527 317L163.845 447L118.014 326L63 397.5Z" fill="#FFC727" fill-opacity="0.7"/>
<path d="M493.559 63.0903L509.419 1.89017L479.422 6.49868L493.559 63.0903Z" fill="#FFC727" fill-opacity="0.7"/>
<path d="M98 156H83V264H98V156Z" fill="#E8EEFF"/>
<path d="M123 182H108V264H123V182Z" fill="#E8EEFF"/>
<path d="M149 223H134V264H149V223Z" fill="#E8EEFF"/>
<path d="M174 199H159V264H174V199Z" fill="#E8EEFF"/>
<path d="M200 175H185V264H200V175Z" fill="#E8EEFF"/>
<path d="M225 160H210V264H225V160Z" fill="#E8EEFF"/>
<path d="M74.3619 142L74.535 172.4L74.6294 202.799L74.7395 263.582L74.3619 263.212C87.9984 263.212 101.635 263.212 115.271 263.212L156.181 263.293L197.09 263.373L238 263.598L197.09 263.823L156.181 263.92L115.271 264C101.635 264 87.9984 264 74.3619 264H74V263.614L74.1101 202.831V172.432L74.3619 142Z" fill="#111010"/>
<path d="M71 157.5C72.1395 157.154 73.3178 156.986 74.5 157.001C75.6824 156.984 76.8609 157.152 78 157.5C76.8609 157.848 75.6824 158.016 74.5 157.999C73.3178 158.014 72.1395 157.846 71 157.5Z" fill="#111010"/>
<path d="M71 166.5C72.1395 166.154 73.3178 165.986 74.5 166.001C75.6824 165.984 76.8609 166.152 78 166.5C76.8609 166.848 75.6824 167.016 74.5 166.999C73.3178 167.014 72.1395 166.846 71 166.5Z" fill="#111010"/>
<path d="M71 175.508C72.1395 175.157 73.3178 174.986 74.5 175.001C75.6824 174.983 76.8609 175.154 78 175.508C76.8619 175.865 75.682 176.03 74.5 175.996C73.3181 176.027 72.1386 175.862 71 175.508Z" fill="#111010"/>
<path d="M71 194.492C72.1386 194.138 73.3181 193.973 74.5 194.004C75.682 193.97 76.8619 194.135 78 194.492C76.8609 194.846 75.6824 195.017 74.5 194.999C73.3178 195.014 72.1395 194.843 71 194.492Z" fill="#111010"/>
<path d="M71 203.5C72.1395 203.154 73.3178 202.986 74.5 203.001C75.6824 202.984 76.8609 203.152 78 203.5C76.8609 203.848 75.6824 204.016 74.5 203.999C73.3178 204.014 72.1395 203.846 71 203.5Z" fill="#111010"/>
<path d="M71 212.5C72.1395 212.154 73.3178 211.986 74.5 212.001C75.6824 211.984 76.8609 212.152 78 212.5C76.8609 212.848 75.6824 213.016 74.5 212.999C73.3178 213.014 72.1395 212.846 71 212.5Z" fill="#111010"/>
<path d="M71 231.509C72.1395 231.158 73.3178 230.988 74.5 231.003C75.6829 230.975 76.8628 231.145 78 231.509C76.8619 231.866 75.682 232.03 74.5 231.996C73.3186 232.017 72.1403 231.854 71 231.509Z" fill="#111010"/>
<path d="M71 240.491C72.1403 240.147 73.3186 239.983 74.5 240.004C75.682 239.97 76.8619 240.134 78 240.491C76.8628 240.855 75.6829 241.025 74.5 240.997C73.3178 241.012 72.1395 240.842 71 240.491Z" fill="#111010"/>
<path d="M71 249.5C72.1395 249.154 73.3178 248.986 74.5 249.001C75.6824 248.984 76.8609 249.152 78 249.5C76.8609 249.848 75.6824 250.016 74.5 249.999C73.3178 250.014 72.1395 249.846 71 249.5Z" fill="#111010"/>
</svg>
