<svg width="36" height="40" viewBox="0 0 36 40" fill="none" xmlns="http://www.w3.org/2000/svg">
<path d="M20.0005 0C13.4037 0 8.00635 5.97566 8.00635 13.2792C8.00635 22.2427 18.5012 32.3681 18.951 32.8661C19.2509 33.0321 19.7006 33.1981 20.0005 33.1981C20.3004 33.1981 20.7501 33.0321 21.05 32.8661C21.4998 32.3681 31.9947 22.2427 31.9947 13.2792C31.9947 5.97566 26.5973 0 20.0005 0ZM20.0005 29.3803C16.852 26.0605 11.0049 18.9229 11.0049 13.2792C11.0049 7.80155 15.0529 3.31981 20.0005 3.31981C24.9481 3.31981 28.9961 7.80155 28.9961 13.2792C28.9961 18.7569 23.149 26.0605 20.0005 29.3803ZM20.0005 6.63962C16.7021 6.63962 14.0034 9.62745 14.0034 13.2792C14.0034 16.931 16.7021 19.9189 20.0005 19.9189C23.2989 19.9189 25.9976 16.931 25.9976 13.2792C25.9976 9.62745 23.2989 6.63962 20.0005 6.63962ZM20.0005 16.5991C18.3513 16.5991 17.002 15.1051 17.002 13.2792C17.002 11.4533 18.3513 9.95943 20.0005 9.95943C21.6497 9.95943 22.999 11.4533 22.999 13.2792C22.999 15.1051 21.6497 16.5991 20.0005 16.5991Z" fill="#3267FF"/>
</svg>
