<svg width="44" height="44" viewBox="0 0 44 44" fill="none" xmlns="http://www.w3.org/2000/svg">
<g clip-path="url(#clip0_1_2680)">
<path d="M22 3.66663C32.1255 3.66663 40.3334 11.8745 40.3334 22C40.3334 32.1255 32.1255 40.3333 22 40.3333C11.8745 40.3333 3.66669 32.1255 3.66669 22C3.66669 11.8745 11.8745 3.66663 22 3.66663ZM22 29.3333C21.5138 29.3333 21.0475 29.5264 20.7037 29.8703C20.3598 30.2141 20.1667 30.6804 20.1667 31.1666C20.1667 31.6529 20.3598 32.1192 20.7037 32.463C21.0475 32.8068 21.5138 33 22 33C22.4863 33 22.9526 32.8068 23.2964 32.463C23.6402 32.1192 23.8334 31.6529 23.8334 31.1666C23.8334 30.6804 23.6402 30.2141 23.2964 29.8703C22.9526 29.5264 22.4863 29.3333 22 29.3333ZM22 11.9166C20.2374 11.9166 18.547 12.6168 17.3007 13.8631C16.0544 15.1095 15.3542 16.7999 15.3542 18.5625C15.3542 19.0487 15.5473 19.515 15.8912 19.8588C16.235 20.2026 16.7013 20.3958 17.1875 20.3958C17.6738 20.3958 18.1401 20.2026 18.4839 19.8588C18.8277 19.515 19.0209 19.0487 19.0209 18.5625C19.0215 18.0217 19.1692 17.4913 19.4484 17.0281C19.7275 16.565 20.1274 16.1865 20.6052 15.9333C21.0831 15.6801 21.6208 15.5618 22.1608 15.591C22.7008 15.6202 23.2226 15.7958 23.6704 16.099C24.1182 16.4022 24.475 16.8215 24.7025 17.3121C24.9301 17.8026 25.0199 18.3459 24.9622 18.8835C24.9045 19.4212 24.7016 19.9331 24.3751 20.3642C24.0487 20.7953 23.6111 21.1295 23.1092 21.3308C21.8699 21.8258 20.1667 23.0945 20.1667 25.2083V25.6666C20.1667 26.1529 20.3598 26.6192 20.7037 26.963C21.0475 27.3068 21.5138 27.5 22 27.5C22.4863 27.5 22.9526 27.3068 23.2964 26.963C23.6402 26.6192 23.8334 26.1529 23.8334 25.6666C23.8334 25.2193 23.925 24.9956 24.3119 24.805L24.4714 24.7316C25.9028 24.1558 27.0894 23.0999 27.8277 21.745C28.566 20.3901 28.8099 18.8206 28.5177 17.3055C28.2256 15.7904 27.4155 14.4242 26.2263 13.441C25.0371 12.4578 23.543 11.9189 22 11.9166Z" fill="#F1F8FF"/>
</g>
<defs>
<clipPath id="clip0_1_2680">
<rect width="44" height="44" fill="white"/>
</clipPath>
</defs>
</svg>
