<svg width="36" height="40" viewBox="0 0 36 40" fill="none" xmlns="http://www.w3.org/2000/svg">
<path d="M32.5986 30.3109C32.348 32.4196 31.4126 34.3551 29.9672 35.7561C28.5219 37.157 26.6653 37.9275 24.7443 37.9237C13.5841 37.9237 4.50416 27.8709 4.50416 15.515C4.50072 13.3881 5.19667 11.3327 6.46202 9.73242C7.72738 8.13218 9.4756 7.09661 11.3802 6.81914C11.8618 6.75403 12.3495 6.86312 12.7706 7.13012C13.1916 7.39712 13.5233 7.80771 13.7162 8.30061L16.6848 15.6379V15.6566C16.8325 16.0339 16.8935 16.4458 16.8623 16.8556C16.8312 17.2653 16.7089 17.6602 16.5063 18.0048C16.481 18.0468 16.4543 18.0857 16.4262 18.1246L13.4998 21.9653C14.5525 24.3337 16.7902 26.7894 18.9576 27.958L22.3787 24.7352C22.4123 24.704 22.4475 24.6749 22.4841 24.6481C22.7952 24.4184 23.153 24.2782 23.5253 24.2401C23.8976 24.2021 24.2726 24.2674 24.6164 24.4302L24.6347 24.4396L31.2563 27.7246C31.7023 27.9374 32.074 28.3044 32.316 28.7706C32.5579 29.2368 32.6571 29.7772 32.5986 30.3109Z" fill="#3267FF"/>
</svg>
