<svg width="223" height="32" viewBox="0 0 223 32" fill="none" xmlns="http://www.w3.org/2000/svg">
<path d="M113.506 0C121.523 0 128.006 6.93071 128.006 15.5C128.006 24.0693 121.523 31 113.506 31C105.49 31 99.0063 24.0693 99.0063 15.5C99.0063 6.93071 105.49 0 113.506 0ZM110.855 23.6707C117.276 23.6707 120.798 17.98 120.798 13.0421V12.555C121.481 12.0236 122.082 11.3593 122.538 10.6064C121.916 10.8943 121.233 11.0936 120.528 11.2043C121.253 10.7393 121.813 10.0086 122.061 9.145C121.378 9.56571 120.632 9.87571 119.845 10.0529C119.203 9.32214 118.291 8.87929 117.297 8.87929C115.371 8.87929 113.796 10.5621 113.796 12.6214C113.796 12.9093 113.817 13.1971 113.9 13.4629C111 13.3079 108.411 11.8243 106.691 9.56571C106.401 10.1193 106.215 10.7614 106.215 11.4479C106.215 12.7321 106.836 13.8836 107.768 14.5479C107.188 14.5479 106.65 14.3707 106.194 14.0829V14.1271C106.194 15.9429 107.396 17.4486 108.991 17.8029C108.701 17.8914 108.39 17.9357 108.079 17.9357C107.851 17.9357 107.644 17.9136 107.416 17.8693C107.851 19.3529 109.156 20.4379 110.668 20.46C109.467 21.4564 107.955 22.0543 106.318 22.0543C106.028 22.0543 105.759 22.0543 105.49 22.01C107.023 23.0729 108.866 23.6929 110.834 23.6929" fill="#3267FF"/>
<path d="M149.006 2.22038C149.006 0.993938 149.927 0 151.063 0H174.95C176.086 0 177.006 0.993938 177.006 2.22038V28.7796C177.006 30.0061 176.086 31 174.95 31H151.063C149.927 31 149.006 30.0061 149.006 28.7796V2.22038ZM157.657 25.9509V11.9524H153.455V25.9509H157.657ZM155.557 10.0401C157.021 10.0401 157.933 8.96675 157.933 7.62212C157.907 6.24844 157.023 5.20413 155.585 5.20413C154.146 5.20413 153.206 6.25037 153.206 7.62212C153.206 8.96675 154.118 10.0401 155.529 10.0401H155.557ZM164.146 25.9509V18.1331C164.146 17.7146 164.174 17.2961 164.286 16.9977C164.588 16.1626 165.28 15.2966 166.442 15.2966C167.962 15.2966 168.57 16.5792 168.57 18.4624V25.9509H172.771V17.9219C172.771 13.6206 170.699 11.6211 167.934 11.6211C165.705 11.6211 164.706 12.9774 164.146 13.9326V13.981H164.118C164.127 13.9648 164.136 13.9487 164.146 13.9326V11.9524H159.946C159.998 13.2661 159.946 25.9509 159.946 25.9509H164.146Z" fill="#3267FF"/>
<path d="M207.673 0H206.028L204.931 4.39706L203.834 0H202.006C202.372 1.14706 202.738 2.10294 203.103 3.25C203.652 4.77941 204.017 6.11765 204.017 6.88235V11.4706H205.662V6.88235L207.673 0ZM212.06 8.60294V5.73529C212.06 4.77941 211.877 4.20588 211.512 3.63235C211.146 3.05882 210.598 2.86765 209.867 2.86765C209.135 2.86765 208.587 3.25 208.221 3.82353C207.856 4.20588 207.673 4.77941 207.673 5.73529V8.79412C207.673 9.75 207.856 10.3235 208.221 10.7059C208.587 11.2794 209.135 11.4706 209.867 11.4706C210.598 11.4706 211.146 11.0882 211.512 10.5147C211.877 10.3235 212.06 9.55882 212.06 8.60294ZM210.598 8.98529C210.598 9.75 210.415 10.1324 209.867 10.1324C209.318 10.1324 209.135 9.75 209.135 8.98529V5.35294C209.135 4.58823 209.318 4.20588 209.867 4.20588C210.415 4.20588 210.598 4.58823 210.598 5.35294V8.98529ZM217.544 11.4706V2.86765H216.082V9.36765C215.716 9.94118 215.533 10.1324 215.168 10.1324C214.985 10.1324 214.802 9.94118 214.802 9.75V2.86765H213.34V9.55882C213.34 10.1324 213.34 10.5147 213.522 10.8971C213.522 11.2794 213.888 11.4706 214.436 11.4706C214.985 11.4706 215.533 11.0882 216.082 10.5147V11.4706H217.544ZM218.275 20.0735C217.727 20.0735 217.544 20.4559 217.544 21.2206V21.9853H219.006V21.2206C219.006 20.4559 218.824 20.0735 218.275 20.0735ZM212.974 20.0735C212.791 20.0735 212.426 20.2647 212.243 20.4559V25.6176C212.426 25.8088 212.791 26 212.974 26C213.34 26 213.522 25.6176 213.522 24.8529V21.2206C213.522 20.4559 213.34 20.0735 212.974 20.0735Z" fill="#3267FF"/>
<path d="M222.612 15.6928C222.218 14.2685 221.037 13.0476 219.855 13.0476C216.703 12.6406 213.355 12.6406 210.006 12.6406C206.658 12.6406 203.506 12.6406 200.158 13.0476C198.976 13.0476 197.794 14.2685 197.4 15.6928C197.006 17.7276 197.006 19.9658 197.006 22.0006C197.006 24.0354 197.006 26.2737 197.4 28.3085C197.794 29.7328 198.779 30.7502 200.158 30.9537C203.506 31.3606 206.658 31.3606 210.006 31.3606C213.355 31.3606 216.506 31.3606 219.855 30.9537C221.234 30.7502 222.415 29.7328 222.612 28.3085C223.006 26.2737 223.006 24.0354 223.006 22.0006C223.006 19.9658 223.006 17.7276 222.612 15.6928ZM204.491 17.5241H202.521V27.9015H200.749V17.5241H198.976V15.6928H204.491V17.5241ZM209.218 27.9015H207.643V26.8841C207.052 27.698 206.461 27.9015 205.87 27.9015C205.279 27.9015 205.082 27.698 204.885 27.2911C204.885 27.0876 204.688 26.6806 204.688 25.8667V18.745H206.264V25.8667C206.264 26.0702 206.461 26.2737 206.658 26.2737C207.052 26.2737 207.249 26.0702 207.643 25.4598V18.745H209.218V27.9015ZM215.128 25.0528C215.128 25.8667 215.128 26.4771 214.931 26.8841C214.734 27.4945 214.34 27.9015 213.749 27.9015C213.158 27.9015 212.567 27.4945 212.173 26.8841V27.698H210.597V15.6928H212.173V19.5589C212.764 18.9485 213.158 18.5415 213.749 18.5415C214.34 18.5415 214.734 18.9485 214.931 19.5589C215.128 19.9658 215.128 20.5763 215.128 21.3902V25.0528ZM221.037 23.6285H217.885V25.2563C217.885 26.0702 218.082 26.4771 218.673 26.4771C219.067 26.4771 219.264 26.2737 219.461 25.8667V24.8493H221.037V26.0702C221.037 26.4771 220.84 26.6806 220.643 27.0876C220.249 27.698 219.658 28.105 218.673 28.105C217.885 28.105 217.294 27.698 216.703 27.0876C216.309 26.6806 216.112 25.8667 216.112 25.0528V22.0006C216.112 20.9832 216.309 20.3728 216.506 19.9658C216.9 19.3554 217.491 18.9485 218.476 18.9485C219.264 18.9485 219.855 19.3554 220.249 19.9658C220.643 20.3728 220.643 21.1867 220.643 22.0006V23.6285H221.037Z" fill="#3267FF"/>
<path d="M29.0063 15.5388C29.0063 6.9614 22.5103 0 14.5063 0C6.50235 0 0.00634766 6.9614 0.00634766 15.5388C0.00634766 23.0596 4.99435 29.3218 11.6063 30.7669V20.2005H8.70635V15.5388H11.6063V11.6541C11.6063 8.65514 13.8828 6.21554 16.6813 6.21554H20.3063V10.8772H17.4063C16.6088 10.8772 15.9563 11.5764 15.9563 12.4311V15.5388H20.3063V20.2005H15.9563V31C23.2788 30.2231 29.0063 23.6035 29.0063 15.5388Z" fill="#3267FF"/>
<path d="M64.0026 7.547C60.0275 7.547 56.8194 11.0989 56.8194 15.5C56.8194 19.9011 60.0275 23.453 64.0026 23.453C67.9777 23.453 71.1858 19.9011 71.1858 15.5C71.1858 11.0989 67.9777 7.547 64.0026 7.547ZM64.0026 20.6689C61.4319 20.6689 59.334 18.3462 59.334 15.5C59.334 12.6538 61.4319 10.3311 64.0026 10.3311C66.5733 10.3311 68.6712 12.6538 68.6712 15.5C68.6712 18.3462 66.5733 20.6689 64.0026 20.6689ZM71.48 5.36778C70.5519 5.36778 69.8024 6.19759 69.8024 7.22516C69.8024 8.25273 70.5519 9.08254 71.48 9.08254C72.4081 9.08254 73.1576 8.25661 73.1576 7.22516C73.1579 6.98116 73.1147 6.73949 73.0305 6.51401C72.9463 6.28852 72.8227 6.08364 72.6669 5.91111C72.511 5.73858 72.326 5.60177 72.1223 5.50854C71.9187 5.41531 71.7004 5.36747 71.48 5.36778ZM78.0048 15.5C78.0048 13.3596 78.0223 11.2385 77.9137 9.10193C77.8052 6.62025 77.2938 4.41776 75.6547 2.60304C74.0122 0.784432 72.0264 0.222178 69.7849 0.101971C67.8516 -0.0182348 65.9359 0.00115338 64.0061 0.00115338C62.0728 0.00115338 60.1571 -0.0182348 58.2273 0.101971C55.9858 0.222178 53.9965 0.78831 52.3574 2.60304C50.7149 4.42164 50.207 6.62025 50.0984 9.10193C49.9899 11.2424 50.0074 13.3634 50.0074 15.5C50.0074 17.6366 49.9899 19.7615 50.0984 21.8981C50.207 24.3797 50.7184 26.5822 52.3574 28.397C54 30.2156 55.9858 30.7778 58.2273 30.898C60.1606 31.0182 62.0763 30.9988 64.0061 30.9988C65.9394 30.9988 67.8551 31.0182 69.7849 30.898C72.0264 30.7778 74.0157 30.2117 75.6547 28.397C77.2973 26.5784 77.8052 24.3797 77.9137 21.8981C78.0258 19.7615 78.0048 17.6404 78.0048 15.5ZM74.9228 24.6434C74.6671 25.3492 74.3589 25.8765 73.8651 26.4194C73.3712 26.9661 72.8984 27.3074 72.261 27.5904C70.4188 28.4008 66.0444 28.2186 64.0026 28.2186C61.9607 28.2186 57.5829 28.4008 55.7407 27.5943C55.1032 27.3112 54.6269 26.97 54.1366 26.4233C53.6428 25.8765 53.3346 25.353 53.0789 24.6473C52.3504 22.6038 52.515 17.7607 52.515 15.5C52.515 13.2393 52.3504 8.39232 53.0789 6.35269C53.3346 5.64697 53.6428 5.11961 54.1366 4.57675C54.6304 4.03388 55.1032 3.68877 55.7407 3.4057C57.5829 2.59916 61.9607 2.78141 64.0026 2.78141C66.0444 2.78141 70.4223 2.59916 72.2645 3.4057C72.9019 3.68877 73.3782 4.03 73.8686 4.57675C74.3624 5.12349 74.6706 5.64697 74.9263 6.35269C75.6547 8.39232 75.4901 13.2393 75.4901 15.5C75.4901 17.7607 75.6547 22.6038 74.9228 24.6434Z" fill="#3267FF"/>
</svg>
