<svg width="30" height="35" viewBox="0 0 30 35" fill="none" xmlns="http://www.w3.org/2000/svg">
<path d="M16.9742 1.85919C16.6005 0.951701 15.7082 0.356873 14.7245 0.356873C13.7407 0.356873 12.8485 0.951701 12.4748 1.85919L3.32361 23.8221L0.273206 31.143C-0.245362 32.3861 0.34184 33.8121 1.58488 34.3307C2.82792 34.8493 4.25398 34.2621 4.77255 33.019L7.19762 27.2004H22.2513L24.6764 33.019C25.195 34.2621 26.621 34.8493 27.8641 34.3307C29.1071 33.8121 29.6943 32.3861 29.1758 31.143L26.1254 23.8221L16.9742 1.85919ZM20.2152 22.3198H9.23376L14.7245 9.14203L20.2152 22.3198Z" fill="black"/>
</svg>
